<svg width="17" height="17" viewBox="0 0 17 17" fill="none" xmlns="http://www.w3.org/2000/svg">
<g clip-path="url(#clip0_1_2992)">
<path d="M5.04127 10.1023C5.04127 10.4235 5.04127 10.584 5.10108 10.7284C5.16089 10.8728 5.27444 10.9864 5.50153 11.2135L5.69217 11.4041C5.91927 11.6312 6.03281 11.7448 6.1772 11.8046C6.32159 11.8644 6.48217 11.8644 6.80333 11.8644H7.3984C7.88013 11.8644 8.121 11.8644 8.33759 11.7747C8.55417 11.6849 8.72449 11.5146 9.06513 11.174L14.4861 5.753C15.0039 5.23526 15.2627 4.97639 15.3823 4.68761C15.5418 4.30257 15.5418 3.86995 15.3823 3.48491C15.2627 3.19612 15.0039 2.93726 14.4861 2.41952C13.9684 1.90179 13.7095 1.64292 13.4207 1.5233C13.0357 1.36381 12.6031 1.36381 12.218 1.5233C11.9292 1.64292 11.6704 1.90179 11.1526 2.41952L5.73166 7.84051C5.39102 8.18115 5.2207 8.35147 5.13098 8.56805C5.04127 8.78464 5.04127 9.02551 5.04127 9.50725V10.1023Z" stroke="#6C757D" style="stroke:#6C757D;stroke:color(display-p3 0.4235 0.4588 0.4902);stroke-opacity:1;" stroke-width="1.04607"/>
<path d="M4.98906 10.4696L1.85402 13.6046C1.45446 14.0042 1.45446 14.652 1.85402 15.0516C2.25359 15.4511 2.9014 15.4511 3.30097 15.0516L6.436 11.9165" stroke="#6C757D" style="stroke:#6C757D;stroke:color(display-p3 0.4235 0.4588 0.4902);stroke-opacity:1;" stroke-width="1.04607" stroke-linejoin="round"/>
<path d="M4.69257 13.9565L2.94912 12.213" stroke="#6C757D" style="stroke:#6C757D;stroke:color(display-p3 0.4235 0.4588 0.4902);stroke-opacity:1;" stroke-width="1.04607" stroke-linejoin="round"/>
<circle cx="1.74345" cy="1.74345" r="1.74345" transform="matrix(-1 0 0 1 14.8046 11.167)" stroke="#6C757D" style="stroke:#6C757D;stroke:color(display-p3 0.4235 0.4588 0.4902);stroke-opacity:1;" stroke-width="1.04607" stroke-linejoin="round"/>
</g>
<defs>
<clipPath id="clip0_1_2992">
<rect width="16.7371" height="16.7371" fill="white" style="fill:white;fill-opacity:1;" transform="translate(0.159607 0.00891113)"/>
</clipPath>
</defs>
</svg>
