<svg width="15" height="14" viewBox="0 0 15 14" fill="none" xmlns="http://www.w3.org/2000/svg">
<g clip-path="url(#clip0_54_489)">
<path d="M4.56963 8.50736C4.56963 8.76429 4.56963 8.89275 4.61747 9.00826C4.66532 9.12377 4.75616 9.21461 4.93783 9.39629L5.09035 9.5488C5.27202 9.73048 5.36286 9.82131 5.47837 9.86916C5.59388 9.91701 5.72235 9.91701 5.97927 9.91701H6.45533C6.84072 9.91701 7.03341 9.91701 7.20668 9.84524C7.37995 9.77347 7.5162 9.63721 7.78871 9.3647L12.1255 5.02791C12.5397 4.61372 12.7468 4.40663 12.8425 4.1756C12.9701 3.86757 12.9701 3.52147 12.8425 3.21344C12.7468 2.98241 12.5397 2.77532 12.1255 2.36113C11.7113 1.94694 11.5042 1.73985 11.2732 1.64416C10.9652 1.51656 10.6191 1.51656 10.311 1.64416C10.08 1.73985 9.87291 1.94694 9.45872 2.36113L5.12193 6.69792C4.84942 6.97043 4.71317 7.10669 4.6414 7.27996C4.56963 7.45322 4.56963 7.64592 4.56963 8.03131V8.50736Z" stroke="#6C757D" style="stroke:#6C757D;stroke:color(display-p3 0.4235 0.4588 0.4902);stroke-opacity:1;" stroke-width="1.25528"/>
<path d="M4.5279 8.80115L2.01987 11.3092C1.70022 11.6288 1.70022 12.1471 2.01987 12.4667C2.33952 12.7864 2.85778 12.7864 3.17742 12.4667L5.68546 9.9587" stroke="#6C757D" style="stroke:#6C757D;stroke:color(display-p3 0.4235 0.4588 0.4902);stroke-opacity:1;" stroke-width="1.25528" stroke-linejoin="round"/>
<path d="M4.29068 11.5907L2.89592 10.1959" stroke="#6C757D" style="stroke:#6C757D;stroke:color(display-p3 0.4235 0.4588 0.4902);stroke-opacity:1;" stroke-width="1.25528" stroke-linejoin="round"/>
</g>
<defs>
<clipPath id="clip0_54_489">
<rect width="13.3897" height="13.3897" fill="white" style="fill:white;fill-opacity:1;" transform="translate(0.664307 0.432617)"/>
</clipPath>
</defs>
</svg>
