<svg width="11" height="11" viewBox="0 0 11 11" fill="none" xmlns="http://www.w3.org/2000/svg">
<path d="M6.68743 5.22882L10.134 1.79027C10.2849 1.63934 10.3697 1.43464 10.3697 1.22119C10.3697 1.00774 10.2849 0.803035 10.134 0.652104C9.98306 0.501174 9.77836 0.416382 9.56491 0.416382C9.35146 0.416382 9.14676 0.501174 8.99583 0.652104L5.55728 4.09867L2.11873 0.652104C1.9678 0.501174 1.76309 0.416382 1.54964 0.416382C1.3362 0.416382 1.13149 0.501174 0.98056 0.652104C0.829629 0.803035 0.744837 1.00774 0.744837 1.22119C0.744837 1.43464 0.829629 1.63934 0.98056 1.79027L4.42713 5.22882L0.98056 8.66737C0.905434 8.74188 0.845805 8.83053 0.805112 8.92821C0.76442 9.02588 0.743469 9.13064 0.743469 9.23646C0.743469 9.34227 0.76442 9.44703 0.805112 9.5447C0.845805 9.64238 0.905434 9.73103 0.98056 9.80554C1.05507 9.88066 1.14372 9.9403 1.24139 9.98099C1.33907 10.0217 1.44383 10.0426 1.54964 10.0426C1.65545 10.0426 1.76022 10.0217 1.85789 9.98099C1.95557 9.9403 2.04422 9.88066 2.11873 9.80554L5.55728 6.35897L8.99583 9.80554C9.07034 9.88066 9.15899 9.9403 9.25666 9.98099C9.35434 10.0217 9.4591 10.0426 9.56491 10.0426C9.67072 10.0426 9.77549 10.0217 9.87316 9.98099C9.97083 9.9403 10.0595 9.88066 10.134 9.80554C10.2091 9.73103 10.2688 9.64238 10.3094 9.5447C10.3501 9.44703 10.3711 9.34227 10.3711 9.23646C10.3711 9.13064 10.3501 9.02588 10.3094 8.92821C10.2688 8.83053 10.2091 8.74188 10.134 8.66737L6.68743 5.22882Z" fill="#222222" style="fill:#222222;fill:color(display-p3 0.1333 0.1333 0.1333);fill-opacity:1;"/>
</svg>
