<svg width="18" height="18" viewBox="0 0 18 18" fill="none" xmlns="http://www.w3.org/2000/svg">
<rect x="1.10577" y="0.769588" width="16.0397" height="16.0397" rx="2.99873" stroke="#212529" style="stroke:#212529;stroke:color(display-p3 0.1294 0.1451 0.1608);stroke-opacity:1;" stroke-width="0.697379"/>
<path d="M6.33606 13.8107V10.4347C6.33606 10.1142 6.33606 9.95393 6.20752 9.91405C5.92492 9.82637 5.49921 10.4631 5.49921 10.4631M6.33606 13.8107H5.49921M6.33606 13.8107H7.17292" stroke="#212529" style="stroke:#212529;stroke:color(display-p3 0.1294 0.1451 0.1608);stroke-opacity:1;" stroke-width="0.836854" stroke-linecap="round" stroke-linejoin="round"/>
<path d="M7.45183 5.72152V4.74519C7.45183 4.28494 7.45183 4.05482 7.28842 3.91184C7.12501 3.76886 6.86202 3.76886 6.33602 3.76886C5.81002 3.76886 5.54703 3.76886 5.38362 3.91184C5.22021 4.05482 5.22021 4.28494 5.22021 4.74519C5.22021 5.20544 5.22021 5.43556 5.38362 5.57854C5.54703 5.72152 5.81002 5.72152 6.33602 5.72152H7.45183ZM7.45183 5.72152V6.20969C7.45183 6.90005 7.45183 7.24524 7.20672 7.45971C6.96161 7.67418 6.56711 7.67418 5.77812 7.67418H5.22021" stroke="#212529" style="stroke:#212529;stroke:color(display-p3 0.1294 0.1451 0.1608);stroke-opacity:1;" stroke-width="0.836854" stroke-linecap="round" stroke-linejoin="round"/>
<path d="M11.6362 13.2527V4.32623M11.6362 13.2527C11.2455 13.2527 10.5156 12.1401 10.2414 11.8579M11.6362 13.2527C12.0268 13.2527 12.7567 12.1401 13.0309 11.8579" stroke="#212529" style="stroke:#212529;stroke:color(display-p3 0.1294 0.1451 0.1608);stroke-opacity:1;" stroke-width="0.836854" stroke-linecap="round" stroke-linejoin="round"/>
</svg>
