<svg width="15" height="14" viewBox="0 0 15 14" fill="none" xmlns="http://www.w3.org/2000/svg">
<path fill-rule="evenodd" clip-rule="evenodd" d="M2.51425 7.1779C2.51425 6.67715 2.84352 5.71038 3.66374 4.85861C4.45899 4.03277 5.69336 3.34232 7.46564 3.34232C9.23793 3.34232 10.4723 4.03277 11.2676 4.85861C12.0878 5.71038 12.417 6.67715 12.417 7.1779C12.417 7.67866 12.0878 8.64543 11.2676 9.49719C10.4723 10.323 9.23793 11.0135 7.46564 11.0135C5.69336 11.0135 4.45899 10.323 3.66374 9.49719C2.84352 8.64543 2.51425 7.67866 2.51425 7.1779ZM7.46564 2.08704C5.33261 2.08704 3.77746 2.93082 2.75953 3.9879C1.76656 5.01906 1.25897 6.2839 1.25897 7.1779C1.25897 8.0719 1.76656 9.33674 2.75953 10.3679C3.77746 11.425 5.33261 12.2688 7.46564 12.2688C9.59868 12.2688 11.1538 11.425 12.1718 10.3679C13.1647 9.33674 13.6723 8.0719 13.6723 7.1779C13.6723 6.2839 13.1647 5.01906 12.1718 3.9879C11.1538 2.93082 9.59868 2.08704 7.46564 2.08704ZM6.41952 7.17793C6.41952 6.60021 6.88786 6.13187 7.46558 6.13187C8.04331 6.13187 8.51165 6.60021 8.51165 7.17793C8.51165 7.75566 8.04331 8.224 7.46558 8.224C6.88786 8.224 6.41952 7.75566 6.41952 7.17793ZM7.46558 4.87659C6.19458 4.87659 5.16423 5.90693 5.16423 7.17793C5.16423 8.44894 6.19458 9.47928 7.46558 9.47928C8.73658 9.47928 9.76693 8.44894 9.76693 7.17793C9.76693 5.90693 8.73658 4.87659 7.46558 4.87659Z" fill="#F8F9FA" style="fill:#F8F9FA;fill:color(display-p3 0.9725 0.9765 0.9804);fill-opacity:1;"/>
</svg>
