<svg width="16" height="15" viewBox="0 0 16 15" fill="none" xmlns="http://www.w3.org/2000/svg">
<g clip-path="url(#clip0_26_1185)">
<path d="M14.0381 6.55484H12.184M10.33 6.55484H12.184M12.184 6.55484V0.992798L10.33 2.84681M8.93952 4.00557C8.93952 5.15751 8.00569 6.09134 6.85375 6.09134C5.70182 6.09134 4.76799 5.15751 4.76799 4.00557C4.76799 2.85363 5.70182 1.91981 6.85375 1.91981C8.00569 1.91981 8.93952 2.85363 8.93952 4.00557ZM2.91454 11.9527C2.91416 11.9302 2.91397 11.9077 2.91397 11.8851C2.91397 9.70925 4.67787 7.94535 6.85375 7.94535C9.02963 7.94535 10.7935 9.70925 10.7935 11.8851V11.8867C10.7935 11.9087 10.7933 11.9307 10.793 11.9527C9.64241 12.6454 8.29461 13.0439 6.85375 13.0439C5.41289 13.0439 4.06509 12.6454 2.91454 11.9527Z" stroke="#6C757D" style="stroke:#6C757D;stroke:color(display-p3 0.4235 0.4588 0.4902);stroke-opacity:1;" stroke-width="0.927007" stroke-linecap="round" stroke-linejoin="round"/>
</g>
<defs>
<clipPath id="clip0_26_1185">
<rect width="14.8321" height="14.8321" fill="white" style="fill:white;fill-opacity:1;" transform="translate(0.441956 0.0657043)"/>
</clipPath>
</defs>
</svg>
