<svg width="13" height="13" viewBox="0 0 13 13" fill="none" xmlns="http://www.w3.org/2000/svg">
<path d="M4.57336 6.94523L5.96387 8.33574L8.28138 5.09121M11.9894 6.48172C11.9894 7.26553 11.6003 7.95845 11.0047 8.37787C11.1292 9.0955 10.9144 9.86049 10.3602 10.4147C9.80603 10.9688 9.04105 11.1837 8.32342 11.0592C7.90399 11.6547 7.21112 12.0438 6.42737 12.0438C5.64365 12.0438 4.95079 11.6547 4.53136 11.0593C3.81361 11.1839 3.04846 10.969 2.4942 10.4148C1.93995 9.86053 1.72512 9.09539 1.84972 8.37765C1.2543 7.95822 0.865326 7.2654 0.865326 6.48172C0.865326 5.69802 1.25433 5.00517 1.84979 4.58574C1.72526 3.86805 1.9401 3.10299 2.49431 2.54878C3.04852 1.99457 3.8136 1.77973 4.53129 1.90427C4.95072 1.30874 5.64361 0.919678 6.42737 0.919678C7.2111 0.919678 7.90397 1.30871 8.3234 1.9042C9.04114 1.7796 9.80628 1.99442 10.3605 2.54868C10.9148 3.10293 11.1296 3.86806 11.005 4.58579C11.6004 5.00523 11.9894 5.69805 11.9894 6.48172Z" stroke="#6C757D" style="stroke:#6C757D;stroke:color(display-p3 0.4235 0.4588 0.4902);stroke-opacity:1;" stroke-width="0.927007" stroke-linecap="round" stroke-linejoin="round"/>
</svg>
