<svg width="28" height="10" viewBox="0 0 28 10" fill="none" xmlns="http://www.w3.org/2000/svg">
<rect width="21.7582" height="9.2054" transform="translate(0.765625 0.726562)" fill="#F8F9FA" style="fill:#F8F9FA;fill:color(display-p3 0.9725 0.9765 0.9804);fill-opacity:1;"/>
<path d="M6.33238 8.72656H4.92646V1.6066H6.33238V8.72656ZM14.0324 8.72656H12.5762L9.34262 3.67531V8.72656H7.95679V1.6066H9.68406L12.6465 6.31642V1.6066H14.0324V8.72656ZM17.041 7.44115H18.1457C19.3106 7.44115 20.2847 6.71811 20.2847 5.1716C20.2847 3.6251 19.3206 2.89201 18.1557 2.89201H17.041V7.44115ZM18.1959 8.72656H15.6552V1.6066H18.2059C20.2345 1.6066 21.7207 2.92214 21.7207 5.1716C21.7207 7.42107 20.2244 8.72656 18.1959 8.72656Z" fill="#240046" style="fill:#240046;fill:color(display-p3 0.1412 0.0000 0.2745);fill-opacity:1;"/>
<path d="M22.5238 0.726562L26.645 3.474C27.2072 3.84884 27.545 4.47986 27.545 5.1556C27.545 5.79174 27.2455 6.39075 26.7365 6.77243L22.5238 9.93196V0.726562Z" fill="#F8F9FA" style="fill:#F8F9FA;fill:color(display-p3 0.9725 0.9765 0.9804);fill-opacity:1;"/>
</svg>
