<svg width="16" height="15" viewBox="0 0 16 15" fill="none" xmlns="http://www.w3.org/2000/svg">
<path fill-rule="evenodd" clip-rule="evenodd" d="M9.11288 0.83816L9.0245 0.838147C8.24696 0.837975 7.75137 0.837865 7.3337 0.964568C6.39551 1.24917 5.66134 1.98335 5.37673 2.92153C5.25003 3.3392 5.25014 3.83479 5.25031 4.61233L5.25033 4.70071L5.25033 5.00969C5.25033 5.26568 5.45784 5.4732 5.71383 5.4732C5.96982 5.4732 6.17733 5.26568 6.17733 5.00969L6.17733 4.70071C6.17733 3.80451 6.18237 3.45916 6.26382 3.19063C6.45855 2.54872 6.96088 2.04638 7.6028 1.85166C7.87132 1.7702 8.21667 1.76517 9.11288 1.76517L10.4107 1.76517C11.1105 1.76517 11.6076 1.76553 11.9965 1.79731C12.3801 1.82864 12.6176 1.88821 12.8057 1.98408C13.1837 2.17665 13.4909 2.48391 13.6835 2.86184C13.7794 3.05 13.8389 3.28747 13.8703 3.67102C13.902 4.05998 13.9024 4.55702 13.9024 5.25689L13.9024 9.70653C13.9024 10.4064 13.902 10.9034 13.8703 11.2924C13.8389 11.676 13.7794 11.9134 13.6835 12.1016C13.4909 12.4795 13.1837 12.7868 12.8057 12.9793C12.6176 13.0752 12.3801 13.1348 11.9965 13.1661C11.6076 13.1979 11.1105 13.1983 10.4107 13.1983H9.11284C8.21667 13.1983 7.87134 13.1932 7.60282 13.1118C6.96089 12.9171 6.45854 12.4147 6.26382 11.7728C6.18236 11.5043 6.17733 11.1589 6.17733 10.2628L6.17733 9.95373C6.17733 9.69775 5.96982 9.49023 5.71383 9.49023C5.45785 9.49023 5.25033 9.69775 5.25033 9.95373L5.25033 10.2628L5.25031 10.3511C5.25014 11.1286 5.25003 11.6242 5.37672 12.0419C5.66132 12.9801 6.39552 13.7143 7.33373 13.9989C7.75138 14.1256 8.24695 14.1255 9.02444 14.1253H9.02447L9.11284 14.1253H10.4107H10.4311C11.106 14.1253 11.6409 14.1253 12.072 14.09C12.5129 14.054 12.8859 13.9789 13.2266 13.8053C13.7789 13.5239 14.228 13.0748 14.5094 12.5224C14.683 12.1818 14.7582 11.8088 14.7942 11.3679C14.8294 10.9368 14.8294 10.4019 14.8294 9.72697V9.72693V9.70653V5.25689V5.2365V5.23645C14.8294 4.56152 14.8294 4.02666 14.7942 3.59553C14.7582 3.15466 14.683 2.78161 14.5094 2.44098C14.228 1.88863 13.7789 1.43955 13.2266 1.15811C12.886 0.984554 12.5129 0.9094 12.072 0.873379C11.6409 0.838154 11.106 0.838156 10.4311 0.83816L10.4107 0.83816L9.11288 0.83816ZM9.1316 4.68195C8.95059 4.50094 8.65712 4.50094 8.47611 4.68195C8.2951 4.86296 8.2951 5.15643 8.47611 5.33744L10.1569 7.01821H2.0058C1.74982 7.01821 1.5423 7.22573 1.5423 7.48171C1.5423 7.7377 1.74982 7.94522 2.0058 7.94522L10.1569 7.94522L8.47611 9.62599C8.2951 9.807 8.2951 10.1005 8.47611 10.2815C8.65712 10.4625 8.95059 10.4625 9.1316 10.2815L11.6036 7.80946C11.7846 7.62845 11.7846 7.33498 11.6036 7.15397L9.1316 4.68195Z" fill="#6C757D" style="fill:#6C757D;fill:color(display-p3 0.4235 0.4588 0.4902);fill-opacity:1;"/>
</svg>
