<svg width="42" height="42" viewBox="0 0 42 42" fill="none" xmlns="http://www.w3.org/2000/svg">
<circle cx="21" cy="21" r="20.75" fill="#FFE0C9" stroke="url(#paint0_linear_1_3032)" style="fill:#FFE0C9;fill:color(display-p3 1.0000 0.8799 0.7875);fill-opacity:1;" stroke-width="0.5"/>
<g clip-path="url(#clip0_1_3032)">
<path fill-rule="evenodd" clip-rule="evenodd" d="M13.9406 21.3195L17.3106 27.1565L26.2266 25.9925L24.2126 22.504L22.8166 20.086L19.4066 14.1795L13.9406 21.3195ZM14.7296 28.5285C14.7241 28.5315 14.7191 28.535 14.7141 28.5385L13.9236 28.995C13.9071 29.0025 13.8911 29.012 13.8756 29.0225C13.1036 29.46 12.2216 29.5455 11.4196 29.331C10.6161 29.116 9.89411 28.5985 9.44461 27.83C9.43761 27.816 9.43011 27.803 9.42111 27.79C8.98361 27.018 8.89811 26.136 9.11311 25.334C9.33011 24.524 9.85311 23.797 10.6301 23.3485L13.4606 21.7145L16.7286 27.375L14.7296 28.5285ZM17.0356 27.9055L15.3021 28.9065L17.8056 33.2425L19.5391 32.2415L17.0356 27.9055ZM25.5561 16.216C26.2431 16.4 26.8601 16.844 27.2481 17.5045C27.2551 17.5185 27.2631 17.532 27.2721 17.545C27.6471 18.2095 27.7216 18.964 27.5381 19.6495C27.3771 20.2505 27.0181 20.798 26.4896 21.185L24.1916 17.205L23.7026 16.3575C24.3021 16.0925 24.9556 16.055 25.5561 16.216ZM26.1351 21.7945L28.3066 25.556C28.4031 25.723 28.4221 25.915 28.3751 26.09C28.3286 26.2645 28.2161 26.421 28.0486 26.517L28.0356 26.525C27.8721 26.6145 27.6861 26.631 27.5156 26.5855C27.3406 26.5385 27.1841 26.4265 27.0886 26.2605L27.0881 26.2595L27.0886 26.259L26.9876 26.084L26.9871 26.0835L23.3476 19.7795L19.7111 13.4815C19.7091 13.4775 19.7066 13.4735 19.7041 13.47L19.6171 13.3195C19.6111 13.3075 19.6046 13.296 19.5971 13.2845C19.5086 13.1215 19.4921 12.936 19.5371 12.767C19.5821 12.5985 19.6891 12.4465 19.8476 12.3495C19.8586 12.344 19.8691 12.338 19.8791 12.3315C20.0421 12.243 20.2276 12.226 20.3966 12.2715C20.5716 12.3185 20.7281 12.4305 20.8236 12.5965L23.0096 16.383L26.1056 21.7455C26.1141 21.762 26.1236 21.779 26.1351 21.7945ZM30.3041 16.063C30.1576 16.148 29.9701 16.098 29.8851 15.9515C29.8001 15.805 29.8501 15.6175 29.9966 15.5325L32.5876 14.0365C32.7341 13.9515 32.9216 14.0015 33.0066 14.148C33.0916 14.2945 33.0416 14.482 32.8951 14.567L30.3041 16.063ZM30.7236 20.7715C30.5596 20.7275 30.4626 20.5595 30.5061 20.3955C30.5501 20.2315 30.7181 20.1345 30.8821 20.178L33.7721 20.9525C33.9361 20.9965 34.0331 21.1645 33.9896 21.3285C33.9456 21.4925 33.7776 21.5895 33.6136 21.546L30.7236 20.7715ZM26.6786 13.0305L27.4531 10.1405C27.4971 9.97647 27.3996 9.80847 27.2356 9.76447C27.0716 9.72047 26.9036 9.81797 26.8596 9.98197L26.0851 12.872C26.0411 13.036 26.1386 13.204 26.3026 13.248C26.4666 13.2915 26.6351 13.1945 26.6786 13.0305Z" fill="#F7941D" style="fill:#F7941D;fill:color(display-p3 0.9686 0.5804 0.1137);fill-opacity:1;"/>
</g>
<defs>
<linearGradient id="paint0_linear_1_3032" x1="21" y1="0" x2="21" y2="42" gradientUnits="userSpaceOnUse">
<stop stop-color="#FFEFE2" style="stop-color:#FFEFE2;stop-color:color(display-p3 1.0000 0.9373 0.8863);stop-opacity:1;"/>
<stop offset="1" stop-color="#F7941D" style="stop-color:#F7941D;stop-color:color(display-p3 0.9686 0.5804 0.1137);stop-opacity:1;"/>
</linearGradient>
<clipPath id="clip0_1_3032">
<rect width="25" height="25" fill="white" style="fill:white;fill-opacity:1;" transform="translate(9 9)"/>
</clipPath>
</defs>
</svg>
