<svg width="70" height="112" viewBox="0 0 70 112" fill="none" xmlns="http://www.w3.org/2000/svg">
<mask id="path-1-inside-1_1_2888" fill="white">
<path fill-rule="evenodd" clip-rule="evenodd" d="M10.0885 0.384521C4.54227 0.384521 0.0462036 4.88059 0.0462036 10.4268V93.2754H69.5051V10.4268C69.5051 4.88059 65.0091 0.384521 59.4629 0.384521H10.0885ZM69.5051 93.2771H0.0462036V95.6777C0.0462036 99.8554 3.04537 103.43 7.15947 104.156L18.0386 107.085L34.7757 111.688L46.9101 108.34L59.8813 104.575C64.8842 103.574 68.6938 99.4975 69.3537 94.4383L69.5051 93.2771Z"/>
</mask>
<path fill-rule="evenodd" clip-rule="evenodd" d="M10.0885 0.384521C4.54227 0.384521 0.0462036 4.88059 0.0462036 10.4268V93.2754H69.5051V10.4268C69.5051 4.88059 65.0091 0.384521 59.4629 0.384521H10.0885ZM69.5051 93.2771H0.0462036V95.6777C0.0462036 99.8554 3.04537 103.43 7.15947 104.156L18.0386 107.085L34.7757 111.688L46.9101 108.34L59.8813 104.575C64.8842 103.574 68.6938 99.4975 69.3537 94.4383L69.5051 93.2771Z" fill="#2F35B9" style="fill:#2F35B9;fill:color(display-p3 0.1843 0.2070 0.7250);fill-opacity:1;"/>
<path d="M0.0462036 93.2754H-2.46436V95.7859H0.0462036V93.2754ZM69.5051 93.2754V95.7859H72.0157V93.2754H69.5051ZM0.0462036 93.2771V90.7665H-2.46436V93.2771H0.0462036ZM69.5051 93.2771L71.9946 93.6018L72.3644 90.7665H69.5051V93.2771ZM7.15947 104.156L7.81215 101.732L7.70502 101.703L7.59577 101.684L7.15947 104.156ZM18.0386 107.085L18.7043 104.664L18.6913 104.661L18.0386 107.085ZM34.7757 111.688L34.11 114.109L34.7767 114.292L35.4433 114.108L34.7757 111.688ZM46.9101 108.34L47.5777 110.761L47.5939 110.756L47.61 110.751L46.9101 108.34ZM59.8813 104.575L59.3889 102.113L59.2841 102.134L59.1813 102.164L59.8813 104.575ZM69.3537 94.4383L66.8642 94.1136L69.3537 94.4383ZM2.55677 10.4268C2.55677 6.26713 5.92882 2.89509 10.0885 2.89509V-2.12604C3.15573 -2.12604 -2.46436 3.49404 -2.46436 10.4268H2.55677ZM2.55677 93.2754V10.4268H-2.46436V93.2754H2.55677ZM69.5051 90.7648H0.0462036V95.7859H69.5051V90.7648ZM66.9946 10.4268V93.2754H72.0157V10.4268H66.9946ZM59.4629 2.89509C63.6225 2.89509 66.9946 6.26714 66.9946 10.4268H72.0157C72.0157 3.49405 66.3956 -2.12604 59.4629 -2.12604V2.89509ZM10.0885 2.89509H59.4629V-2.12604H10.0885V2.89509ZM0.0462036 95.7877H69.5051V90.7665H0.0462036V95.7877ZM2.55677 95.6777V93.2771H-2.46436V95.6777H2.55677ZM7.59577 101.684C4.68136 101.17 2.55677 98.6372 2.55677 95.6777H-2.46436C-2.46436 101.074 1.40938 105.691 6.72317 106.629L7.59577 101.684ZM18.6913 104.661L7.81215 101.732L6.50679 106.58L17.3859 109.509L18.6913 104.661ZM35.4414 109.267L18.7043 104.664L17.3729 109.506L34.11 114.109L35.4414 109.267ZM46.2424 105.92L34.108 109.268L35.4433 114.108L47.5777 110.761L46.2424 105.92ZM59.1813 102.164L46.2101 105.929L47.61 110.751L60.5813 106.986L59.1813 102.164ZM66.8642 94.1136C66.3434 98.1061 63.3371 101.323 59.3889 102.113L60.3737 107.036C66.4314 105.825 71.0441 100.889 71.8431 94.7631L66.8642 94.1136ZM67.0156 92.9524L66.8642 94.1136L71.8431 94.7631L71.9946 93.6018L67.0156 92.9524Z" fill="#9599FF" style="fill:#9599FF;fill:color(display-p3 0.5833 0.6008 1.0000);fill-opacity:1;" mask="url(#path-1-inside-1_1_2888)"/>
<path d="M24.3855 47.732H30.6519C34.1064 47.732 36.5433 49.9279 36.5433 53.1682C36.5433 57.319 33.5173 59.8362 29.0451 59.863H26.0458L24.573 66.7185H20.3686L24.3855 47.732ZM29.5807 51.3739H27.8668L26.8224 56.221H28.9916C31.3214 56.221 32.1783 54.8553 32.1783 53.5431C32.1783 52.2309 31.4553 51.3739 29.5807 51.3739ZM35.2519 66.7185C35.2786 66.6917 35.359 65.9955 35.359 65.9687C35.9213 62.7552 37.3674 60.345 40.9826 58.765L44.1158 57.3993C45.7226 56.703 46.6063 55.9264 46.6063 54.641C46.6063 53.6502 46.0439 52.6594 44.3836 52.6594C42.5358 52.6594 41.7592 54.0787 41.7592 56.0871L37.8762 55.6854C37.8762 51.8292 40.4738 48.937 44.6782 48.937C48.829 48.937 50.7839 51.4007 50.7839 54.159C50.7839 57.0779 48.9897 59.0328 46.0707 60.3182L42.4555 61.8982C41.8664 62.166 41.3308 62.5677 40.9291 63.1836H48.8825L48.1327 66.7185H35.2519Z" fill="#9599FF" style="fill:#9599FF;fill:color(display-p3 0.5833 0.6008 1.0000);fill-opacity:1;"/>
</svg>
