<svg width="70" height="112" viewBox="0 0 70 112" fill="none" xmlns="http://www.w3.org/2000/svg">
<path fill-rule="evenodd" clip-rule="evenodd" d="M10.4132 0.386475C4.86698 0.386475 0.370911 4.88254 0.370911 10.4287V93.2773H69.8298V10.4287C69.8298 4.88255 65.3338 0.386475 59.7876 0.386475H10.4132ZM69.8298 93.28H0.370911V95.6807C0.370911 99.8583 3.37008 103.433 7.48417 104.159L18.3633 107.088L35.1004 111.691L47.2348 108.343L60.206 104.578C65.2089 103.577 69.0185 99.5004 69.6784 94.4412L69.8298 93.28Z" fill="#141866" style="fill:#141866;fill:color(display-p3 0.0800 0.0934 0.4000);fill-opacity:1;"/>
<path d="M24.7861 47.732H31.0525C34.507 47.732 36.944 49.9279 36.944 53.1682C36.944 57.319 33.9179 59.8362 29.4457 59.863H26.4464L24.9736 66.7185H20.7692L24.7861 47.732ZM29.9813 51.3739H28.2674L27.2231 56.221H29.3922C31.722 56.221 32.5789 54.8553 32.5789 53.5431C32.5789 52.2309 31.8559 51.3739 29.9813 51.3739ZM41.9456 58.8722L40.5799 55.9532L45.6144 52.8736H38.3572L39.0535 49.3387H51.6665L50.8899 53.2217L46.0696 56.2478C48.2388 56.5424 49.8455 58.3098 49.8455 60.7199C49.8455 64.0138 46.9801 67.1202 42.749 67.1202C38.5179 67.1202 36.2148 64.2816 36.2148 61.3359C36.2148 61.2555 36.2148 61.1484 36.2416 60.9877L40.3656 60.5325C40.3389 60.7199 40.3389 60.8538 40.3389 60.9342C40.3389 62.4338 41.3297 63.4782 42.8293 63.4782C44.4897 63.4782 45.5876 62.407 45.5876 60.8271C45.5876 59.381 44.4629 58.6044 43.2043 58.6044C42.7758 58.6044 42.267 58.7115 41.9456 58.8722Z" fill="#4E54DD" style="fill:#4E54DD;fill:color(display-p3 0.3059 0.3294 0.8667);fill-opacity:1;"/>
</svg>
