<svg width="71" height="112" viewBox="0 0 71 112" fill="none" xmlns="http://www.w3.org/2000/svg">
<path fill-rule="evenodd" clip-rule="evenodd" d="M10.7301 0.386475C5.18388 0.386475 0.687805 4.88254 0.687805 10.4287V93.2773H70.1467V10.4287C70.1467 4.88255 65.6507 0.386475 60.1045 0.386475H10.7301ZM70.1467 93.28H0.687805V95.6807C0.687805 99.8583 3.68697 103.433 7.80107 104.159L18.6802 107.088L35.4173 111.691L47.5517 108.343L60.5229 104.578C65.5258 103.577 69.3354 99.5004 69.9953 94.4412L70.1467 93.28Z" fill="#141866" style="fill:#141866;fill:color(display-p3 0.0800 0.0934 0.4000);fill-opacity:1;"/>
<path d="M24.0635 47.732H30.3299C33.7844 47.732 36.2214 49.9279 36.2214 53.1682C36.2214 57.319 33.1953 59.8362 28.7231 59.863H25.7239L24.251 66.7185H20.0466L24.0635 47.732ZM29.2587 51.3739H27.5449L26.5005 56.221H28.6696C30.9994 56.221 31.8563 54.8553 31.8563 53.5431C31.8563 52.2309 31.1333 51.3739 29.2587 51.3739ZM35.3584 63.1033L36.2689 58.8186L45.5345 49.3387H50.5422L48.3731 59.5684H51.1849L50.4351 63.1033H47.6233L46.8735 66.7185H42.6691L43.4189 63.1033H35.3584ZM44.1688 59.5684L45.3738 53.8644L39.8037 59.5684H44.1688Z" fill="#4E54DD" style="fill:#4E54DD;fill:color(display-p3 0.3059 0.3294 0.8667);fill-opacity:1;"/>
</svg>
