<svg width="18" height="18" viewBox="0 0 18 18" fill="none" xmlns="http://www.w3.org/2000/svg">
<rect x="0.631557" y="0.769588" width="16.0397" height="16.0397" rx="2.99873" stroke="#6C757D" style="stroke:#6C757D;stroke:color(display-p3 0.4235 0.4588 0.4902);stroke-opacity:1;" stroke-width="0.697379"/>
<path d="M5.86185 13.8107V10.4347C5.86185 10.1142 5.86185 9.95393 5.7333 9.91405C5.45071 9.82637 5.02499 10.4631 5.02499 10.4631M5.86185 13.8107H5.02499M5.86185 13.8107H6.6987" stroke="#6C757D" style="stroke:#6C757D;stroke:color(display-p3 0.4235 0.4588 0.4902);stroke-opacity:1;" stroke-width="0.836854" stroke-linecap="round" stroke-linejoin="round"/>
<path d="M6.97764 5.72152V4.74519C6.97764 4.28494 6.97764 4.05482 6.81424 3.91184C6.65083 3.76886 6.38783 3.76886 5.86184 3.76886C5.33584 3.76886 5.07284 3.76886 4.90944 3.91184C4.74603 4.05482 4.74603 4.28494 4.74603 4.74519C4.74603 5.20544 4.74603 5.43556 4.90944 5.57854C5.07284 5.72152 5.33584 5.72152 5.86184 5.72152H6.97764ZM6.97764 5.72152V6.20969C6.97764 6.90005 6.97764 7.24524 6.73254 7.45971C6.48743 7.67418 6.09293 7.67418 5.30394 7.67418H4.74603" stroke="#6C757D" style="stroke:#6C757D;stroke:color(display-p3 0.4235 0.4588 0.4902);stroke-opacity:1;" stroke-width="0.836854" stroke-linecap="round" stroke-linejoin="round"/>
<path d="M11.162 13.2527V4.32623M11.162 13.2527C10.7713 13.2527 10.0414 12.1401 9.76721 11.8579M11.162 13.2527C11.5526 13.2527 12.2825 12.1401 12.5567 11.8579" stroke="#6C757D" style="stroke:#6C757D;stroke:color(display-p3 0.4235 0.4588 0.4902);stroke-opacity:1;" stroke-width="0.836854" stroke-linecap="round" stroke-linejoin="round"/>
</svg>
