<svg width="254" height="40" viewBox="0 0 254 40" fill="none" xmlns="http://www.w3.org/2000/svg">
<path d="M9.17687 0.5C4.48861 0.5 1.34223 5.3123 3.22257 9.60697L14.6062 35.607C15.6416 37.972 17.9787 39.5 20.5605 39.5H233.44C236.021 39.5 238.358 37.972 239.394 35.607L250.777 9.60697C252.658 5.31231 249.511 0.5 244.823 0.5H9.17687Z" fill="url(#paint0_linear_1_3017)" stroke="url(#paint1_linear_1_3017)" style=""/>
<path d="M66.5963 19.398H68.6203C69.9403 19.398 70.8423 18.628 70.8423 17.418C70.8423 16.164 69.9403 15.416 68.6203 15.416H66.5963V19.398ZM68.9723 22.39H66.5743V28H63.0983V12.402H68.9723C72.1403 12.402 74.3183 14.492 74.3183 17.396C74.3183 20.344 72.1403 22.39 68.9723 22.39ZM79.2965 20.19C79.2965 23.446 81.6285 24.898 83.8065 24.898C85.9625 24.898 88.2945 23.446 88.2945 20.19C88.2945 16.934 85.9625 15.46 83.8065 15.46C81.6285 15.46 79.2965 16.934 79.2965 20.19ZM75.6885 20.212C75.6885 15.262 79.4065 12.072 83.8065 12.072C88.1845 12.072 91.9025 15.262 91.9025 20.212C91.9025 25.14 88.1845 28.33 83.8065 28.33C79.4065 28.33 75.6885 25.14 75.6885 20.212ZM108.671 22.412L111.201 12.402H114.765L110.519 28H106.933L103.611 17.66L100.267 28H96.615L92.369 12.402H96.065L98.639 22.39L101.873 12.402H105.437L108.671 22.412ZM126.58 28H116.68V12.402H126.558V15.68H120.156V18.65H125.964V21.708H120.156V24.7H126.58V28ZM137.009 28L134.215 22.192H132.983V28H129.507V12.402H135.689C138.769 12.402 140.748 14.514 140.748 17.286C140.748 19.398 139.583 21.004 137.669 21.686L140.837 28H137.009ZM132.983 19.2H135.029C136.459 19.2 137.229 18.408 137.229 17.308C137.229 16.142 136.459 15.416 135.029 15.416H132.983V19.2ZM152.233 19.398H154.257C155.577 19.398 156.479 18.628 156.479 17.418C156.479 16.164 155.577 15.416 154.257 15.416H152.233V19.398ZM154.609 22.39H152.211V28H148.735V12.402H154.609C157.777 12.402 159.955 14.492 159.955 17.396C159.955 20.344 157.777 22.39 154.609 22.39ZM172.328 28H162.12V12.402H165.596V24.678H172.328V28ZM185.074 28L183.952 24.832H177.924L176.802 28H173.15L179.024 12.402H183.05L188.858 28H185.074ZM180.982 16.274L179.068 21.664H182.852L180.982 16.274ZM192.784 21.488L187.372 12.402H191.442L194.632 18.188L197.866 12.402H201.738L196.26 21.488V28H192.784V21.488ZM213.549 28H203.649V12.402H213.527V15.68H207.125V18.65H212.933V21.708H207.125V24.7H213.549V28ZM223.977 28L221.183 22.192H219.951V28H216.475V12.402H222.657C225.737 12.402 227.717 14.514 227.717 17.286C227.717 19.398 226.551 21.004 224.637 21.686L227.805 28H223.977ZM219.951 19.2H221.997C223.427 19.2 224.197 18.408 224.197 17.308C224.197 16.142 223.427 15.416 221.997 15.416H219.951V19.2Z" fill="url(#paint2_linear_1_3017)" style=""/>
<g clip-path="url(#clip0_1_3017)">
<path d="M43.951 25.6363C45.9863 25.6363 47.6363 23.9863 47.6363 21.951C47.6363 19.9156 45.9863 18.2656 43.951 18.2656C41.9156 18.2656 40.2656 19.9156 40.2656 21.951C40.2656 23.9863 41.9156 25.6363 43.951 25.6363Z" fill="url(#paint3_linear_1_3017)" style=""/>
<path d="M39.7662 31.0951L48.1012 31.0951C48.267 31.0153 49.041 30.6099 49.1269 29.922C49.2068 29.2648 48.611 28.7427 48.1012 28.3127C46.1173 26.6236 43.7034 26.7157 43.7034 26.7157C43.5068 26.7219 41.5843 26.8263 39.9628 28.1837C39.453 28.6137 38.7835 29.1726 38.8572 29.9035C38.9247 30.5608 39.5635 30.9784 39.7662 31.1013V31.0951Z" fill="url(#paint4_linear_1_3017)" style=""/>
<path d="M37.6333 30.0346C37.4859 28.6526 38.5792 27.7374 39.1688 27.246C39.4698 26.9942 39.7769 26.7792 40.0902 26.5949C40.5631 26.3124 40.6921 25.6736 40.3236 25.2682C39.5251 24.396 39.0337 23.229 39.0337 21.9576C39.0337 19.2489 41.2388 17.0438 43.9475 17.0438C44.1625 17.0438 44.3713 17.0622 44.5801 17.0868C44.1932 16.6937 43.7755 16.3313 43.3394 15.9935C42.2031 15.1274 40.9009 13.9481 39.6541 12.3819C37.9158 10.2014 36.9024 8.04546 36.3127 6.40549C36.153 5.96939 35.5941 5.86497 35.2808 6.20894C34.3288 7.25311 33.1065 8.89309 32.2834 11.1596C31.1164 14.3904 31.3744 17.1974 31.5893 18.5302C31.1717 18.131 30.6803 17.5782 30.2565 16.8473C29.6791 15.8522 29.4089 14.8695 29.2983 14.071C29.2246 13.5612 28.5981 13.3523 28.248 13.727C24.8759 17.3693 24.059 22.5288 26.1289 26.4782C29.114 32.1721 36.3496 32.0124 36.8655 31.994C37.1665 31.9817 37.4859 31.9571 37.8175 31.9203C38.1492 31.8834 38.3089 31.5087 38.1185 31.2446C37.8483 30.8761 37.6824 30.4707 37.6394 30.0346H37.6333Z" fill="url(#paint5_linear_1_3017)" style=""/>
</g>
<defs>
<linearGradient id="paint0_linear_1_3017" x1="127.555" y1="39" x2="127.555" y2="1" gradientUnits="userSpaceOnUse">
<stop stop-color="#D13537" stop-opacity="0.15" style="stop-color:#D13537;stop-color:color(display-p3 0.8208 0.2066 0.2163);stop-opacity:0.15;"/>
<stop offset="1" stop-color="#D18035" stop-opacity="0.15" style="stop-color:#D18035;stop-color:color(display-p3 0.8208 0.5014 0.2066);stop-opacity:0.15;"/>
</linearGradient>
<linearGradient id="paint1_linear_1_3017" x1="135.873" y1="39" x2="136.156" y2="0.997979" gradientUnits="userSpaceOnUse">
<stop stop-color="#D13B37" style="stop-color:#D13B37;stop-color:color(display-p3 0.8196 0.2314 0.2157);stop-opacity:1;"/>
<stop offset="1" stop-color="#D17F35" stop-opacity="0.3" style="stop-color:#D17F35;stop-color:color(display-p3 0.8196 0.4980 0.2078);stop-opacity:0.3;"/>
</linearGradient>
<linearGradient id="paint2_linear_1_3017" x1="145.367" y1="34" x2="145.367" y2="6" gradientUnits="userSpaceOnUse">
<stop stop-color="#D13537" style="stop-color:#D13537;stop-color:color(display-p3 0.8208 0.2066 0.2163);stop-opacity:1;"/>
<stop offset="1" stop-color="#D18035" style="stop-color:#D18035;stop-color:color(display-p3 0.8208 0.5014 0.2066);stop-opacity:1;"/>
</linearGradient>
<linearGradient id="paint3_linear_1_3017" x1="47.3013" y1="21.951" x2="40.2656" y2="21.951" gradientUnits="userSpaceOnUse">
<stop stop-color="#D13537" style="stop-color:#D13537;stop-color:color(display-p3 0.8208 0.2066 0.2163);stop-opacity:1;"/>
<stop offset="1" stop-color="#D18035" style="stop-color:#D18035;stop-color:color(display-p3 0.8208 0.5014 0.2066);stop-opacity:1;"/>
</linearGradient>
<linearGradient id="paint4_linear_1_3017" x1="48.6668" y1="28.9081" x2="38.8516" y2="28.9081" gradientUnits="userSpaceOnUse">
<stop stop-color="#D13537" style="stop-color:#D13537;stop-color:color(display-p3 0.8208 0.2066 0.2163);stop-opacity:1;"/>
<stop offset="1" stop-color="#D18035" style="stop-color:#D18035;stop-color:color(display-p3 0.8208 0.5014 0.2066);stop-opacity:1;"/>
</linearGradient>
<linearGradient id="paint5_linear_1_3017" x1="43.6901" y1="19.001" x2="25" y2="19.001" gradientUnits="userSpaceOnUse">
<stop stop-color="#D13537" style="stop-color:#D13537;stop-color:color(display-p3 0.8208 0.2066 0.2163);stop-opacity:1;"/>
<stop offset="1" stop-color="#D18035" style="stop-color:#D18035;stop-color:color(display-p3 0.8208 0.5014 0.2066);stop-opacity:1;"/>
</linearGradient>
<clipPath id="clip0_1_3017">
<rect width="24.1328" height="26" fill="white" style="fill:white;fill-opacity:1;" transform="translate(25 6)"/>
</clipPath>
</defs>
</svg>
