<svg width="18" height="18" viewBox="0 0 18 18" fill="none" xmlns="http://www.w3.org/2000/svg">
<path d="M8.19155 16.2193C5.1315 16.2193 2.65085 13.7215 2.65085 10.6403C2.65085 9.18709 3.31914 7.73391 4.19153 6.456C4.37056 7.50207 5.14416 9.52447 6.80637 9.24552C4.9766 5.40993 8.19155 2.27173 8.19155 2.27173C8.19155 2.27173 8.53784 4.71255 11.6545 7.15338C11.9431 7.37938 12.195 7.61229 12.4142 7.85076" stroke="#F8F9FA" style="stroke:#F8F9FA;stroke:color(display-p3 0.9725 0.9765 0.9804);stroke-opacity:1;" stroke-width="1.04607" stroke-linecap="round" stroke-linejoin="round"/>
<path d="M10.322 15.5219C11.5867 14.1594 13.9253 14.0953 15.2037 15.5219M14.1162 11.3376C14.1162 12.1079 13.5082 12.7324 12.7583 12.7324C12.0083 12.7324 11.4003 12.1079 11.4003 11.3376C11.4003 10.5673 12.0083 9.94287 12.7583 9.94287C13.5082 9.94287 14.1162 10.5673 14.1162 11.3376Z" stroke="#F8F9FA" style="stroke:#F8F9FA;stroke:color(display-p3 0.9725 0.9765 0.9804);stroke-opacity:1;" stroke-width="1.04607" stroke-linecap="round"/>
</svg>
