<svg width="28" height="10" viewBox="0 0 28 10" fill="none" xmlns="http://www.w3.org/2000/svg">
<g clip-path="url(#clip0_1_3002)">
<rect width="21.7582" height="9.2054" transform="translate(0.765625 0.015625)" fill="#222222" style="fill:#222222;fill:color(display-p3 0.1333 0.1333 0.1333);fill-opacity:1;"/>
<path d="M9.71662 2.59281L8.47138 2.97441C8.40108 2.58277 8.07973 1.97019 7.17592 1.97019C6.50309 1.97019 6.06123 2.402 6.06123 2.87399C6.06123 3.26564 6.31229 3.57695 6.83449 3.67737L7.82867 3.86817C9.12412 4.11923 9.81704 4.96278 9.81704 5.967C9.81704 7.06161 8.90319 8.16626 7.24622 8.16626C5.35828 8.16626 4.52477 6.95115 4.4143 5.93688L5.69971 5.59544C5.75997 6.2984 6.25204 6.93106 7.25626 6.93106C7.99939 6.93106 8.41112 6.5595 8.41112 6.05739C8.41112 5.64565 8.09981 5.3243 7.54749 5.21384L6.55331 5.01299C5.41853 4.78202 4.68545 4.04893 4.68545 2.97441C4.68545 1.70909 5.82022 0.745032 7.16588 0.745032C8.89315 0.745032 9.55594 1.78943 9.71662 2.59281ZM15.6801 8.01562L15.0877 6.38878H12.1955L11.603 8.01562H10.1368L12.8683 0.895666H14.4751L17.1865 8.01562H15.6801ZM13.6416 2.43213L12.6574 5.12346H14.6257L13.6416 2.43213Z" fill="#F8F9FA" style="fill:#F8F9FA;fill:color(display-p3 0.9725 0.9765 0.9804);fill-opacity:1;"/>
</g>
<path d="M22.5238 0.015625L26.645 2.76307C27.2072 3.1379 27.545 3.76893 27.545 4.44466C27.545 5.0808 27.2455 5.67981 26.7365 6.06149L22.5238 9.22102V0.015625Z" fill="#222222" style="fill:#222222;fill:color(display-p3 0.1333 0.1333 0.1333);fill-opacity:1;"/>
<defs>
<clipPath id="clip0_1_3002">
<rect width="21.7582" height="9.2054" fill="white" style="fill:white;fill-opacity:1;" transform="translate(0.765625 0.015625)"/>
</clipPath>
</defs>
</svg>
