<svg width="15" height="14" viewBox="0 0 15 14" fill="none" xmlns="http://www.w3.org/2000/svg">
<g clip-path="url(#clip0_54_79)">
<path d="M4.79175 4.51981L4.21726 4.26702L4.21726 4.26703L4.79175 4.51981ZM3.99613 6.32794L4.43414 6.77748C4.49184 6.72126 4.53817 6.65446 4.57062 6.58073L3.99613 6.32794ZM11.2433 6.37028L11.5181 6.93456L11.5181 6.93456L11.2433 6.37028ZM11.9012 6.02367L12.2626 6.53684L12.2626 6.53683L11.9012 6.02367ZM12.3152 3.53876L12.8203 3.16616L12.8203 3.16616L12.3152 3.53876ZM11.1816 9.30558L11.0331 8.69575L11.0331 8.69575L11.1816 9.30558ZM8.42163 9.9776L8.57012 10.5874L8.57012 10.5874L8.42163 9.9776ZM2.96093 7.33662L3.39885 7.78624L3.39894 7.78615L2.96093 7.33662ZM12.1205 5.81273C11.8359 5.61476 11.4448 5.68496 11.2468 5.96951C11.0488 6.25405 11.119 6.64521 11.4036 6.84317L12.1205 5.81273ZM2.06511 8.5898L1.4407 8.52614L2.06511 8.5898ZM6.84366 11.1183L6.40574 10.6687L6.40574 10.6687L6.84366 11.1183ZM5.55701 11.9909L5.61743 12.6156L5.61743 12.6156L5.55701 11.9909ZM9.83972 7.58852C9.83972 7.93515 10.1207 8.21616 10.4674 8.21616C10.814 8.21616 11.095 7.93515 11.095 7.58852L9.83972 7.58852ZM6.5173 2.20013L6.10741 1.72481L6.10741 1.72481L6.5173 2.20013ZM4.21726 4.26703L3.42165 6.07516L4.57062 6.58073L5.36623 4.77259L4.21726 4.26703ZM11.5181 6.93456C11.8505 6.77268 12.0896 6.65864 12.2626 6.53684L11.5398 5.5105C11.4714 5.55865 11.3524 5.61903 10.9685 5.80599L11.5181 6.93456ZM12.2626 6.53683C13.3637 5.76141 13.6209 4.25146 12.8203 3.16616L11.8101 3.91136C12.1867 4.42186 12.0736 5.13459 11.5398 5.5105L12.2626 6.53683ZM11.0331 8.69575L8.27315 9.36778L8.57012 10.5874L11.33 9.9154L11.0331 8.69575ZM3.39894 7.78615L4.43414 6.77748L3.55812 5.87841L2.52292 6.88709L3.39894 7.78615ZM11.4036 6.84317C12.1357 7.35249 11.9416 8.47453 11.0331 8.69575L11.33 9.9154C13.2576 9.44604 13.7672 6.9584 12.1205 5.81273L11.4036 6.84317ZM2.52301 6.887C2.25131 7.15162 1.99998 7.39439 1.819 7.62904C1.62107 7.88567 1.47717 8.16845 1.4407 8.52614L2.68951 8.65346C2.69613 8.58851 2.71589 8.52156 2.81299 8.39568C2.92702 8.24782 3.10205 8.07531 3.39885 7.78624L2.52301 6.887ZM6.40574 10.6687C5.77983 11.2783 5.66409 11.3499 5.49659 11.3661L5.61743 12.6156C6.31777 12.5478 6.77052 12.0657 7.28159 11.568L6.40574 10.6687ZM8.27315 9.36778C7.38923 9.58301 6.81145 10.2736 6.40574 10.6687L7.28159 11.568C7.82999 11.0338 8.10845 10.6998 8.57012 10.5874L8.27315 9.36778ZM10.9685 5.80599C10.2796 6.14144 9.83972 6.77182 9.83972 7.58852L11.095 7.58852C11.095 7.28499 11.2305 7.0746 11.5181 6.93456L10.9685 5.80599ZM12.8203 3.16616C12.0902 2.17656 11.0254 1.32571 9.83506 0.959095C8.61842 0.584382 7.2706 0.721757 6.10741 1.72481L6.92718 2.67545C7.72118 1.99076 8.60581 1.89397 9.46557 2.15877C10.3516 2.43166 11.2071 3.094 11.8101 3.91136L12.8203 3.16616ZM5.36623 4.7726C5.72158 3.96504 6.254 3.25595 6.92718 2.67545L6.10741 1.72481C5.29808 2.42272 4.65065 3.28213 4.21726 4.26702L5.36623 4.7726ZM5.49659 11.3661C5.36397 11.379 5.11173 11.33 4.75859 11.1478C4.42166 10.9739 4.05725 10.7116 3.72455 10.3994C3.39138 10.0867 3.10933 9.74192 2.92254 9.41429C2.72966 9.07597 2.67279 8.81747 2.68951 8.65346L1.4407 8.52614C1.38648 9.05801 1.57634 9.5875 1.83204 10.036C2.09383 10.4952 2.4622 10.9361 2.86547 11.3146C3.2692 11.6936 3.72723 12.0281 4.18291 12.2633C4.62238 12.4901 5.13293 12.6624 5.61743 12.6156L5.49659 11.3661Z" fill="#6C757D" style="fill:#6C757D;fill:color(display-p3 0.4235 0.4588 0.4902);fill-opacity:1;"/>
<path d="M4.63939 6.41663C4.63939 6.06999 4.35839 5.78899 4.01175 5.78899C3.66511 5.78899 3.38411 6.06999 3.38411 6.41663H4.63939ZM7.45167 10.9213C7.78266 11.0242 8.13445 10.8394 8.23743 10.5084C8.3404 10.1774 8.15556 9.82561 7.82457 9.72264L7.45167 10.9213ZM7.82457 9.72264C7.10365 9.49835 6.28415 8.97613 5.6469 8.32189C4.99522 7.65283 4.63939 6.95694 4.63939 6.41663H3.38411C3.38411 7.43844 4.00461 8.43486 4.74768 9.19775C5.50519 9.97546 6.49888 10.6248 7.45167 10.9213L7.82457 9.72264Z" fill="#6C757D" style="fill:#6C757D;fill:color(display-p3 0.4235 0.4588 0.4902);fill-opacity:1;"/>
</g>
<defs>
<clipPath id="clip0_54_79">
<rect width="13.3897" height="13.3897" fill="white" style="fill:white;fill-opacity:1;" transform="translate(0.664307 0.000732422)"/>
</clipPath>
</defs>
</svg>
